<?xml version="1.0" encoding="UTF-8"?>
<svg xmlns="http://www.w3.org/2000/svg" viewBox="0 0 215 23">
  <g fill="none" fill-rule="nonzero">
    <path fill="#424242" d="M0 22.6187845V.3812155h12.6013501v4.7651933h-7.623039v4.7016575h6.6896056v4.7651934H4.9783111v8.0055248H0zm21.3903442 0h-4.9783111V.3812155c1.2134633 0 6.7829489-.063536 7.4052378-.063536 5.9428589 0 8.0586411 3.0179559 8.0586411 7.1160222 0 4.1298342-2.4891556 5.8135359-3.6715044 6.417127l6.3473467 8.7679558H28.515552l-5.2894556-7.7831491h-1.8357522v7.7831491zm2.1780111-17.5359116c-.7467467 0-1.1512344.031768-2.1780111.063536v4.9240331h1.8046378c1.8979811 0 3.3914744-.698895 3.3914744-2.5732044 0-1.2389503-.6222889-2.4143647-3.0181011-2.4143647zM34.6287039 11.5c0-6.448895 4.6360522-11.5 11.5745734-11.5 6.6273767 0 11.5745734 4.4157459 11.5745734 11.5 0 6.7348066-4.9471967 11.5-11.5745734 11.5s-11.5745734-4.4157459-11.5745734-11.5zm5.2894556 0c0 3.8121547 2.8003 6.7348066 6.2851178 6.7348066 4.1382211 0 6.2851178-2.9861878 6.2851178-6.7348066 0-4.0662983-2.7691856-6.7348066-6.2851178-6.7348066-3.6092756 0-6.2851178 2.6685083-6.2851178 6.7348066zm40.6501854 11.1187845H76.585696L66.2557004 9.2762431v13.3425414h-4.6671667V.3812155h3.9826489l10.3299956 13.4060773V.3812155h4.6671667v22.237569zm2.8772496-17.4723757V.3812155h18.0463775v4.7651933h-6.534033v17.4723757h-4.9783111V5.1464088h-6.5340334zm20.9236275 17.4723757V.3812155h12.912495v4.7651933h-7.934184v3.9074586h7.00075v4.7651934h-7.00075v4.0345304h8.245328v4.7651933h-13.223639zm36.636422 0h-3.982649L126.693 9.2762431v13.3425414h-4.667167V.3812155h3.982649l10.329995 13.4060773V.3812155h4.667167v22.237569zm5.366405 0V.3812155h.435603c1.151234 0 5.009425-.0953039 6.44069-.0953039 8.712044 0 12.227976 5.1146409 12.227976 11.0234807 0 6.2265193-4.169335 11.3729281-12.476892 11.3729281-1.151234 0-4.013763-.0635359-6.098431-.0635359h-.528946zm6.814064-17.5676795c-.528946 0-1.213464 0-1.835753.0953038v12.7071824c.653404.0635359 1.089006.0635359 1.804638.0635359 4.293794 0 7.031865-2.3825967 7.031865-6.6077348 0-4.0980663-2.955873-6.2582873-7.00075-6.2582873zm16.100888 17.5676795V.3812155h12.912495v4.7651933h-7.934184v3.9074586h7.00075v4.7651934h-7.00075v4.0345304h8.245328v4.7651933h-13.223639zm22.634922 0h-4.978311V.3812155c1.213463 0 6.782949-.063536 7.405238-.063536 5.942859 0 8.058641 3.0179559 8.058641 7.1160222 0 4.1298342-2.489155 5.8135359-3.671504 6.417127l6.347346 8.7679558h-6.036202l-5.289455-7.7831491h-1.835753v7.7831491zm2.178011-17.5359116c-.746746 0-1.151234.031768-2.178011.063536v4.9240331h1.804638c1.897981 0 3.391475-.698895 3.391475-2.5732044 0-1.2389503-.622289-2.4143647-3.018102-2.4143647z"/>
    <path fill="#FFCE00" d="M207.958333 19.5089286c0-1.5401786 1.300596-3.2172619 3.491072-3.2172619 1.916666 0 3.217262 1.6770833 3.217262 3.2172619 0 1.8139881-1.300596 3.4910714-3.217262 3.4910714-2.190476 0-3.491072-1.6770833-3.491072-3.4910714z"/>
  </g>
</svg>
